<svg width="149" height="148" viewBox="0 0 149 148" fill="none" xmlns="http://www.w3.org/2000/svg">
<path d="M35.8321 76.2284C35.8547 76.4595 36.0569 76.6424 36.2856 76.6385L141.32 74.8801C141.392 74.8789 141.458 74.8571 141.514 74.823L141.617 74.8222L148.526 74.7628L144.931 72.2061L141.337 69.6498L141.138 69.8059C141.054 69.7165 140.937 69.6597 140.809 69.6619L35.7752 71.4203C35.5466 71.4241 35.3808 71.6132 35.4034 71.8442L35.8321 76.2284V76.2284Z" fill="#E6E6E6"/>
<path d="M2.28022 74.2409L2.3343 75.4689C2.37481 76.3888 3.1538 77.1141 4.07421 77.0889L35.7131 76.2247C36.6336 76.1996 37.3469 75.4335 37.3063 74.5136L37.2523 73.2856C37.2117 72.3658 36.4328 71.6404 35.5123 71.6656L3.87341 72.5298C2.953 72.555 2.2397 73.321 2.28022 74.2409Z" fill="black"/>
<path d="M37.3648 73.5504C37.3828 73.6622 37.574 73.7498 37.7934 73.7469L138.596 72.4041C138.666 72.4032 138.729 72.3924 138.783 72.3755L138.882 72.3746L145.331 72.4815L142.646 70.5881L141.301 69.7224L138.434 69.7698C138.074 69.5997 138.264 69.7758 138.142 69.7774L37.3861 71.222C37.1667 71.225 37.0046 71.3173 37.0226 71.4291L37.3648 73.5503V73.5504Z" fill="#CCCCCC"/>
<path d="M35.6273 67.8384L35.8263 79.9922C35.8299 80.217 36.0152 80.3976 36.24 80.3955L38.1717 80.3777C38.3965 80.3756 38.5757 80.1917 38.5721 79.9669L38.3731 67.8131C38.3694 67.5883 38.1841 67.4078 37.9593 67.4098L36.0276 67.4276C35.8028 67.4297 35.6236 67.6136 35.6273 67.8384Z" fill="#D4AA00"/>
<path d="M6.38537 74.8139C6.41018 75.1127 6.47619 75.404 6.57816 75.6647C6.68014 75.9254 6.81529 76.1484 6.97286 76.3159C7.08884 76.1254 7.17561 75.8907 7.22693 75.6285C7.27826 75.3664 7.29287 75.0832 7.26972 74.7995C7.24493 74.5007 7.17893 74.2094 7.07697 73.9487C6.97501 73.688 6.83988 73.4651 6.68232 73.2976C6.56633 73.488 6.47955 73.7227 6.42821 73.9849C6.37687 74.2471 6.36224 74.5302 6.38537 74.8139V74.8139Z" fill="#FFCC00"/>
<path d="M12.1938 74.6401C12.2186 74.9389 12.2846 75.2302 12.3866 75.4909C12.4886 75.7517 12.6237 75.9746 12.7813 76.1421C12.8973 75.9516 12.984 75.7169 13.0353 75.4547C13.0867 75.1926 13.1013 74.9095 13.0781 74.6257C13.0533 74.327 12.9873 74.0357 12.8854 73.775C12.7834 73.5143 12.6483 73.2913 12.4907 73.1238C12.3747 73.3142 12.288 73.549 12.2366 73.8111C12.1853 74.0733 12.1707 74.3564 12.1938 74.6401V74.6401Z" fill="#FFCC00"/>
<path d="M18.1503 74.5221C18.1751 74.8209 18.2411 75.1122 18.3431 75.3729C18.4451 75.6337 18.5802 75.8566 18.7378 76.0241C18.8537 75.8336 18.9405 75.5989 18.9918 75.3367C19.0432 75.0746 19.0578 74.7915 19.0346 74.5077C19.0098 74.209 18.9438 73.9177 18.8419 73.657C18.7399 73.3963 18.6048 73.1733 18.4472 73.0058C18.3312 73.1962 18.2444 73.431 18.1931 73.6931C18.1418 73.9553 18.1271 74.2384 18.1503 74.5221V74.5221Z" fill="#FFCC00"/>
<path d="M23.7554 74.4404C23.7802 74.7392 23.8462 75.0305 23.9482 75.2912C24.0501 75.5519 24.1853 75.7749 24.3428 75.9424C24.4588 75.7519 24.5456 75.5172 24.5969 75.255C24.6482 74.9929 24.6628 74.7098 24.6397 74.426C24.6149 74.1273 24.5489 73.836 24.447 73.5753C24.345 73.3145 24.2099 73.0916 24.0523 72.9241C23.9363 73.1145 23.8495 73.3493 23.7982 73.6114C23.7468 73.8736 23.7322 74.1567 23.7554 74.4404V74.4404Z" fill="#FFCC00"/>
<path d="M29.7671 74.1746C29.7919 74.4734 29.8579 74.7647 29.9599 75.0254C30.0619 75.2861 30.197 75.509 30.3546 75.6765C30.4706 75.4861 30.5573 75.2513 30.6086 74.9892C30.66 74.727 30.6746 74.4439 30.6514 74.1602C30.6266 73.8614 30.5607 73.5701 30.4587 73.3094C30.3567 73.0487 30.2216 72.8257 30.0641 72.6582C29.9481 72.8487 29.8613 73.0834 29.8099 73.3456C29.7586 73.6077 29.744 73.8908 29.7671 74.1746V74.1746Z" fill="#FFCC00"/>
</svg>
