<svg width="32" height="38" viewBox="0 0 32 38" fill="none" xmlns="http://www.w3.org/2000/svg">
<g filter="url(#filter0_d_608_121)">
<path d="M27 34H9C8.20435 34 7.44129 33.6839 6.87868 33.1213C6.31607 32.5587 6 31.7956 6 31V20C6 19.2044 6.31607 18.4413 6.87868 17.8787C7.44129 17.3161 8.20435 17 9 17H27C27.7956 17 28.5587 17.3161 29.1213 17.8787C29.6839 18.4413 30 19.2044 30 20V31C30 31.7956 29.6839 32.5587 29.1213 33.1213C28.5587 33.6839 27.7956 34 27 34V34ZM9 19C8.73478 19 8.48043 19.1054 8.29289 19.2929C8.10536 19.4804 8 19.7348 8 20V31C8 31.2652 8.10536 31.5196 8.29289 31.7071C8.48043 31.8946 8.73478 32 9 32H27C27.2652 32 27.5196 31.8946 27.7071 31.7071C27.8946 31.5196 28 31.2652 28 31V20C28 19.7348 27.8946 19.4804 27.7071 19.2929C27.5196 19.1054 27.2652 19 27 19H9Z" fill="#424242"/>
<path d="M26 19H10C9.73478 19 9.48043 18.8946 9.29289 18.7071C9.10536 18.5196 9 18.2652 9 18V12C9 9.87827 9.84285 7.84344 11.3431 6.34315C12.8434 4.84285 14.8783 4 17 4H19C21.1217 4 23.1566 4.84285 24.6569 6.34315C26.1571 7.84344 27 9.87827 27 12V18C27 18.2652 26.8946 18.5196 26.7071 18.7071C26.5196 18.8946 26.2652 19 26 19ZM11 17H25V12C25 10.4087 24.3679 8.88258 23.2426 7.75736C22.1174 6.63214 20.5913 6 19 6H17C15.4087 6 13.8826 6.63214 12.7574 7.75736C11.6321 8.88258 11 10.4087 11 12V17Z" fill="#424242"/>
<path d="M18 26C17.6044 26 17.2178 25.8827 16.8889 25.6629C16.56 25.4432 16.3036 25.1308 16.1522 24.7654C16.0009 24.3999 15.9613 23.9978 16.0384 23.6098C16.1156 23.2219 16.3061 22.8655 16.5858 22.5858C16.8655 22.3061 17.2219 22.1156 17.6098 22.0384C17.9978 21.9613 18.3999 22.0009 18.7654 22.1522C19.1308 22.3036 19.4432 22.56 19.6629 22.8889C19.8827 23.2178 20 23.6044 20 24C20 24.5304 19.7893 25.0391 19.4142 25.4142C19.0391 25.7893 18.5304 26 18 26V26Z" fill="#424242"/>
<path d="M19 25H17V29H19V25Z" fill="#424242"/>
</g>
<defs>
<filter id="filter0_d_608_121" x="0" y="0" width="32" height="38" filterUnits="userSpaceOnUse" color-interpolation-filters="sRGB">
<feFlood flood-opacity="0" result="BackgroundImageFix"/>
<feColorMatrix in="SourceAlpha" type="matrix" values="0 0 0 0 0 0 0 0 0 0 0 0 0 0 0 0 0 0 127 0" result="hardAlpha"/>
<feOffset dx="-2"/>
<feGaussianBlur stdDeviation="2"/>
<feComposite in2="hardAlpha" operator="out"/>
<feColorMatrix type="matrix" values="0 0 0 0 0 0 0 0 0 0 0 0 0 0 0 0 0 0 0.25 0"/>
<feBlend mode="normal" in2="BackgroundImageFix" result="effect1_dropShadow_608_121"/>
<feBlend mode="normal" in="SourceGraphic" in2="effect1_dropShadow_608_121" result="shape"/>
</filter>
</defs>
</svg>
