<svg width="32" height="38" viewBox="0 0 32 38" fill="none" xmlns="http://www.w3.org/2000/svg">
<g filter="url(#filter0_d_608_127)">
<path d="M18 20C16.4178 20 14.871 19.5308 13.5554 18.6518C12.2398 17.7727 11.2145 16.5233 10.609 15.0615C10.0035 13.5997 9.84504 11.9911 10.1537 10.4393C10.4624 8.88743 11.2243 7.46197 12.3431 6.34315C13.462 5.22433 14.8874 4.4624 16.4393 4.15372C17.9911 3.84504 19.5997 4.00347 21.0615 4.60897C22.5233 5.21447 23.7727 6.23985 24.6518 7.55544C25.5308 8.87103 26 10.4178 26 12C26 14.1217 25.1571 16.1566 23.6569 17.6569C22.1566 19.1571 20.1217 20 18 20ZM18 6C16.8133 6 15.6533 6.3519 14.6666 7.01119C13.6799 7.67047 12.9109 8.60755 12.4567 9.7039C12.0026 10.8003 11.8838 12.0067 12.1153 13.1705C12.3468 14.3344 12.9182 15.4035 13.7574 16.2426C14.5965 17.0818 15.6656 17.6532 16.8295 17.8847C17.9933 18.1162 19.1997 17.9974 20.2961 17.5433C21.3925 17.0892 22.3295 16.3201 22.9888 15.3334C23.6481 14.3467 24 13.1867 24 12C24 10.4087 23.3679 8.88258 22.2426 7.75736C21.1174 6.63214 19.5913 6 18 6V6Z" fill="#424242"/>
<path d="M25 34H11C9.67392 34 8.40215 33.4732 7.46447 32.5355C6.52678 31.5979 6 30.3261 6 29V25C6.00003 24.8265 6.04522 24.6559 6.13114 24.5051C6.21705 24.3543 6.34072 24.2285 6.49 24.14L11.49 21.14C11.7156 21.038 11.971 21.0234 12.2068 21.0989C12.4425 21.1744 12.6419 21.3346 12.7663 21.5486C12.8908 21.7627 12.9314 22.0152 12.8803 22.2575C12.8293 22.4997 12.6902 22.7144 12.49 22.86L8 25.57V29C8 29.7957 8.31607 30.5587 8.87868 31.1213C9.44129 31.6839 10.2044 32 11 32H25C25.7956 32 26.5587 31.6839 27.1213 31.1213C27.6839 30.5587 28 29.7957 28 29V25.57L23.49 22.86C23.3625 22.8024 23.2485 22.7186 23.1554 22.6142C23.0623 22.5097 22.9921 22.3869 22.9495 22.2537C22.9068 22.1204 22.8926 21.9797 22.9077 21.8406C22.9228 21.7015 22.967 21.5671 23.0373 21.4461C23.1077 21.3252 23.2026 21.2203 23.316 21.1383C23.4294 21.0564 23.5587 20.9991 23.6956 20.9702C23.8326 20.9414 23.974 20.9416 24.1108 20.9708C24.2477 21.0001 24.3768 21.0577 24.49 21.14L29.49 24.14C29.643 24.226 29.7707 24.3507 29.8602 24.5017C29.9497 24.6526 29.9979 24.8245 30 25V29C30 30.3261 29.4732 31.5979 28.5355 32.5355C27.5979 33.4732 26.3261 34 25 34V34Z" fill="#424242"/>
</g>
<defs>
<filter id="filter0_d_608_127" x="0" y="0" width="32" height="38" filterUnits="userSpaceOnUse" color-interpolation-filters="sRGB">
<feFlood flood-opacity="0" result="BackgroundImageFix"/>
<feColorMatrix in="SourceAlpha" type="matrix" values="0 0 0 0 0 0 0 0 0 0 0 0 0 0 0 0 0 0 127 0" result="hardAlpha"/>
<feOffset dx="-2"/>
<feGaussianBlur stdDeviation="2"/>
<feComposite in2="hardAlpha" operator="out"/>
<feColorMatrix type="matrix" values="0 0 0 0 0 0 0 0 0 0 0 0 0 0 0 0 0 0 0.25 0"/>
<feBlend mode="normal" in2="BackgroundImageFix" result="effect1_dropShadow_608_127"/>
<feBlend mode="normal" in="SourceGraphic" in2="effect1_dropShadow_608_127" result="shape"/>
</filter>
</defs>
</svg>
